# xmcd CD database file
#
# Track frame offsets:
#	150
#	20085
#	37278
#	52433
#	68713
#	86225
#	97593
#	115698
#	133300
#	151073
#	165070
#	181605
#	199373
#	221428
#	239408
#	259150
#	267625
#	285618
#	307870
#
# Disc length: 4349 seconds
#
# Revision: 0
# Processed by: cddbd v1.5.1PL0 Copyright (c) Steve Scherf et al.
# Submitted via: CDex 1.51
#
DISCID=1110fb13
DTITLE=Various Artist - 特撮ヒロインメモリアル (Disc2)
DYEAR=2004
DGENRE=Anime
TTITLE0=No No Give-up
TTITLE1=believe my life 〜わたしは私〜
TTITLE2=17の頃
TTITLE3=雨の日と月曜日が好き
TTITLE4=あなただけChange Me
TTITLE5=元気あげるね
TTITLE6=ターミナル
TTITLE7=アフロディーテ〈聖女〉の夏
TTITLE8=思い立ったが吉日！
TTITLE9=Sweet Dream
TTITLE10=負けないハートでLet It Go
TTITLE11=Today is the day (思い立ったが吉日！ 英語ヴァージョン)
TTITLE12=Brand-New〜心の音符たち
TTITLE13=きっと だいじょうぶ
TTITLE14=忍び恋
TTITLE15=幸せSHAKING HANDS
TTITLE16=自立進行形
TTITLE17=勇気をだしてDarlin'
TTITLE18=C'est La Vie 〜私のなかの恋する部分
EXTD=YEAR: 2004
EXTT0=
EXTT1=
EXTT2=
EXTT3=
EXTT4=
EXTT5=
EXTT6=
EXTT7=
EXTT8=
EXTT9=
EXTT10=
EXTT11=
EXTT12=
EXTT13=
EXTT14=
EXTT15=
EXTT16=
EXTT17=
EXTT18=
PLAYORDER=
